HIERARCHY
ROOT Hips
{
	OFFSET -3.958830 18.904000 13.208200
	CHANNELS 6 Xposition Yposition Zposition Zrotation Yrotation Xrotation 
	JOINT LHipJoint
	{
		OFFSET 0.000000 0.000000 0.000000
		CHANNELS 3 Zrotation Yrotation Xrotation
		JOINT LeftUpLeg
		{
			OFFSET 1.800000 -1.400000 0.085000
			CHANNELS 3 Zrotation Yrotation Xrotation
			JOINT LeftLeg
			{
				OFFSET 2.215000 -6.000000 0.000000
				CHANNELS 3 Zrotation Yrotation Xrotation
				JOINT LeftFoot
				{
					OFFSET 2.500000 -6.900000 0.000000
					CHANNELS 3 Zrotation Yrotation Xrotation
					JOINT LeftToeBase
					{
						OFFSET 0.200000 -0.500000 1.950000
						CHANNELS 3 Zrotation Yrotation Xrotation
						End Site
						{
							OFFSET 0.000000 0.000000 0.000000
						}
					}
				}
			}
		}
	}
	JOINT RHipJoint
	{
		OFFSET 0.000000 0.000000 0.000000
		CHANNELS 3 Zrotation Yrotation Xrotation
		JOINT RightUpLeg
		{
			OFFSET -1.800000 -1.400000 0.085000
			CHANNELS 3 Zrotation Yrotation Xrotation
			JOINT RightLeg
			{
				OFFSET -2.215000 -6.000000 0.000000
				CHANNELS 3 Zrotation Yrotation Xrotation
				JOINT RightFoot
				{
					OFFSET -2.500000 -6.900000 0.000000
					CHANNELS 3 Zrotation Yrotation Xrotation
					JOINT RightToeBase
					{
						OFFSET -0.200000 -0.500000 1.950000
						CHANNELS 3 Zrotation Yrotation Xrotation
						End Site
						{
							OFFSET 0.000000 0.000000 0.000000
						}
					}
				}
			}
		}
	}
	JOINT LowerBack
	{
		OFFSET 0.000000 0.000000 0.000000
		CHANNELS 3 Zrotation Yrotation Xrotation
		JOINT Spine
		{
			OFFSET -0.087000 1.940000 -0.288900
			CHANNELS 3 Zrotation Yrotation Xrotation
			JOINT Spine1
			{
				OFFSET 0.000000 1.950000 0.060000
				CHANNELS 3 Zrotation Yrotation Xrotation
				JOINT Neck
				{
					OFFSET 0.000000 0.000000 0.000000
					CHANNELS 3 Zrotation Yrotation Xrotation
					JOINT Neck1
					{
						OFFSET 0.000000 1.600000 0.340000
						CHANNELS 3 Zrotation Yrotation Xrotation
						JOINT Head
						{
							OFFSET 0.000000 1.667000 -0.240000
							CHANNELS 3 Zrotation Yrotation Xrotation
							End Site
							{
								OFFSET 0.000000 0.000000 0.000000
							}
						}
					}
				}
				JOINT LeftShoulder
				{
					OFFSET 0.000000 0.000000 0.000000
					CHANNELS 3 Zrotation Yrotation Xrotation
					JOINT LeftArm
					{
						OFFSET 2.700000 1.550000 -0.730000
						CHANNELS 3 Zrotation Yrotation Xrotation
						JOINT LeftForeArm
						{
							OFFSET 5.450000 0.000000 0.000000
							CHANNELS 3 Zrotation Yrotation Xrotation
							JOINT LeftHand
							{
								OFFSET 3.450000 0.000000 0.000000
								CHANNELS 3 Zrotation Yrotation Xrotation
								JOINT LeftHandIndex1
								{
									OFFSET 0.750000 0.000000 0.000000
									CHANNELS 3 Zrotation Yrotation Xrotation
									End Site
									{
										OFFSET 0.000000 0.000000 0.000000
									}
								}
							}
						}
					}
				}
				JOINT RightShoulder
				{
					OFFSET 0.000000 0.000000 0.000000
					CHANNELS 3 Zrotation Yrotation Xrotation
					JOINT RightArm
					{
						OFFSET -2.700000 1.550000 -0.730000
						CHANNELS 3 Zrotation Yrotation Xrotation
						JOINT RightForeArm
						{
							OFFSET -5.450000 0.000000 0.000000
							CHANNELS 3 Zrotation Yrotation Xrotation
							JOINT RightHand
							{
								OFFSET -3.450000 0.000000 0.000000
								CHANNELS 3 Zrotation Yrotation Xrotation
								JOINT RightHandIndex1
								{
									OFFSET -0.750000 0.000000 0.000000
									CHANNELS 3 Zrotation Yrotation Xrotation
									End Site
									{
										OFFSET 0.000000 0.000000 0.000000
									}
								}
							}
						}
					}
				}
			}
		}
	}
}
MOTION
Frames: 10
Frame Time: 0.016667
0.344690 16.974490 -0.089760 -4.065499 -28.294319 11.934728 -15.292665 13.613236 2.216929 11.840529 -1.574857 -10.254358 -4.782685 5.876437 15.681065 -0.828910 5.625848 3.178555 0.584130 0.291340 -0.030460 18.158904 -10.346754 2.726326 -14.463180 1.405453 -20.239675 6.009934 -3.353731 3.051347 0.165958 -4.016548 3.208461 0.633290 1.550080 0.875100 -3.102739 -2.544880 -6.207867 3.436519 -2.158861 -0.552858 1.850377 -3.227899 5.779728 1.127368 0.939028 -5.693119 1.700929 4.860614 12.714743 -2.845400 2.432890 4.019860 -8.684781 12.071714 1.809106 -22.727360 7.111339 4.926717 136.561219 -62.428864 -119.284810 -4.858779 3.467131 -0.037650 1.275040 -0.548400 0.889160 7.707629 -14.033571 2.837289 25.796401 -15.047409 1.468750 -114.103738 70.996149 -106.132227 1.846648 -0.684977 -0.475760 0.310990 -0.210070 0.252430 
0.340430 16.974650 -0.087730 -3.988250 -28.377339 11.940655 -15.301604 13.637572 2.218072 11.752742 -1.578518 -10.139618 -4.581277 5.800428 15.616149 -0.807774 5.576094 3.194369 0.592760 0.291670 -0.010490 18.146202 -10.336727 2.738890 -14.557803 1.375284 -20.265106 6.082191 -3.359344 2.995490 0.156127 -4.001237 3.211831 0.617000 1.520940 0.874760 -3.062048 -2.602328 -6.247492 3.174718 -2.158420 -0.339810 2.085832 -3.212394 5.258487 1.280753 0.914130 -5.523233 1.559769 4.853559 12.875052 -2.868910 2.488030 3.982450 -8.696306 12.329926 1.896139 -22.844571 7.579056 4.760937 133.235539 -63.928347 -116.338513 -4.840046 3.385287 -0.023590 1.251170 -0.527440 0.890280 7.558565 -14.269391 2.625734 25.395343 -15.599488 1.003131 -108.618911 72.261925 -94.616673 1.664803 1.690135 -0.462590 0.290470 -0.231180 0.250520 
0.328900 16.974200 -0.085440 -3.822605 -28.464007 12.083913 -15.307431 13.561079 2.179112 11.698610 -1.604065 -10.034715 -4.448017 5.734453 15.580864 -0.796271 5.518119 3.202787 0.605680 0.298040 0.012870 18.153794 -10.359376 2.748068 -14.694290 1.336873 -20.479912 6.233856 -3.389460 2.938340 0.149240 -4.022327 3.195398 0.607580 1.480460 0.879050 -3.072185 -2.409736 -6.221262 2.684489 -1.831855 -0.225709 1.998542 -2.870312 3.069652 2.041422 1.144498 -4.209934 2.018723 4.764382 13.243629 -3.216610 2.657530 4.096970 -7.923808 12.090986 2.953293 -22.411955 8.621981 4.898345 126.652235 -66.263119 -109.737031 -4.866099 3.110048 -0.017550 1.233650 -0.511220 0.887210 5.557646 -13.514008 -1.879188 25.390572 -20.471582 -13.875865 106.366601 86.734877 112.825322 0.236662 2.512101 -0.446710 0.246710 -0.257830 0.243820 
0.318430 16.977980 -0.081250 -3.894973 -28.820685 12.300212 -15.298184 13.564280 2.180708 11.722598 -1.608024 -9.754924 -4.179261 5.605102 15.268031 -0.762107 5.438160 3.221162 0.594640 0.268020 0.026950 18.156020 -10.374623 2.773675 -14.646698 1.348952 -20.786216 6.407908 -3.425251 3.033559 0.147516 -3.989910 3.195172 0.564150 1.430540 0.884000 -3.078117 -2.359786 -6.263828 2.850137 -1.739064 -0.143870 2.150903 -2.825079 2.739250 1.871370 1.396608 -4.300593 2.467718 4.446447 13.233267 -3.401100 2.737080 4.295390 -8.447232 12.464454 2.690374 -22.135550 9.798061 4.374601 115.930222 -68.403283 -97.408817 -4.805231 2.324568 0.004650 1.197640 -0.486010 0.873470 6.098949 -14.152901 -0.862004 25.117399 -21.504340 -12.713125 -48.136139 88.698347 -42.592302 0.906265 -1.854180 -0.427720 0.192710 -0.273310 0.236470 
0.306530 16.981460 -0.073880 -3.905342 -29.001960 12.536417 -15.307336 13.587357 2.183230 11.760190 -1.623121 -9.532272 -3.873696 5.458545 14.836411 -0.719368 5.353743 3.249320 0.576470 0.232850 0.045320 18.144732 -10.344362 2.797935 -14.618863 1.357386 -20.918190 6.584989 -3.412890 2.856461 0.148790 -3.954373 3.203906 0.517660 1.387560 0.878440 -3.042900 -2.430434 -6.306016 2.892051 -1.870500 0.043812 2.242896 -2.967493 1.857421 1.911268 1.645759 -4.117392 2.877104 4.027504 13.305986 -3.644540 2.740410 4.531520 -8.133537 12.957283 1.784082 -22.460989 11.615178 1.690814 101.577727 -72.496115 -78.168592 -4.271026 0.426529 0.013530 1.165850 -0.468360 0.854790 5.611773 -14.913368 -0.268155 25.577612 -22.126268 -11.947174 -34.122122 84.000963 -28.584261 1.129640 -2.573488 -0.410040 0.152670 -0.286930 0.229680 
0.294640 16.980420 -0.066900 -4.062076 -29.198424 12.912880 -15.323451 13.590046 2.174753 11.997348 -1.640612 -9.328559 -3.711409 5.341576 14.252045 -0.711904 5.345869 3.262953 0.547360 0.194150 0.018310 18.141229 -10.288142 2.791623 -14.421119 1.418624 -21.128137 6.619816 -3.374020 2.763942 0.173151 -3.953042 3.203045 0.499210 1.408260 0.886700 -3.031578 -2.527816 -6.268864 3.272125 -2.112629 -0.154776 2.149244 -3.209240 1.006959 1.904230 1.765968 -3.527924 3.018530 3.682784 13.050544 -3.842170 2.400510 5.092310 -7.555039 12.704428 -0.161960 -22.612312 14.677446 -4.961736 77.357998 -79.420633 -56.817221 -3.871431 1.241201 -0.011130 1.184530 -0.497360 0.848590 5.084162 -15.108659 0.347140 25.911462 -23.258278 -12.025190 -27.681336 79.493131 -21.549884 1.215199 -2.805898 -0.411611 0.134080 -0.268870 0.235800 
0.278770 16.981050 -0.060090 -3.996865 -29.265872 13.125227 -15.332076 13.586483 2.170260 12.070553 -1.663396 -9.148361 -3.535974 5.217841 13.765982 -0.713973 5.320702 3.268490 0.533980 0.182820 -0.012530 18.139313 -10.253337 2.794063 -14.400426 1.430073 -21.234417 6.612759 -3.327144 2.609205 0.187417 -3.964818 3.184904 0.497950 1.418740 0.893630 -3.026717 -2.581476 -6.254223 3.319867 -2.284482 -0.394964 2.013239 -3.383445 0.830102 1.985992 1.690262 -3.303482 2.923344 3.450263 12.665534 -3.681700 1.866070 5.294670 -7.836293 13.068458 -0.171858 -22.405853 15.703762 -5.719823 56.566553 -76.345842 -39.777688 -4.227424 2.936997 -0.037200 1.192030 -0.521810 0.840040 5.322052 -15.484866 0.269542 25.964808 -24.398074 -12.384039 -25.354522 75.110818 -17.982930 1.259322 -2.899946 -0.402980 0.115780 -0.246590 0.245740 
0.261590 16.981590 -0.056040 -4.046028 -29.449251 13.305341 -15.333843 13.580788 2.172403 12.243786 -1.681200 -8.822835 -3.361493 5.095389 13.184245 -0.703263 5.289080 3.279226 0.530140 0.157470 -0.002560 18.139180 -10.245808 2.796183 -14.243775 1.450008 -21.312151 6.514032 -3.294675 2.521053 0.186884 -3.938505 3.187233 0.473540 1.398750 0.902190 -3.024586 -2.579849 -6.259538 3.535386 -2.363296 -0.424967 1.787419 -3.459727 0.537631 2.122840 1.707788 -3.216027 2.976863 3.102485 12.618288 -3.722710 1.616390 5.359420 -7.810383 13.500955 -0.184265 -22.692436 15.799791 -5.760977 44.827511 -71.323847 -28.844717 -4.329231 3.416392 -0.026180 1.176260 -0.517630 0.828860 5.041737 -15.979899 0.310623 26.858724 -25.112662 -12.942481 -24.359358 70.612661 -15.452524 1.314057 -2.929355 -0.392800 0.089430 -0.244200 0.237460 
0.246530 16.981120 -0.050120 -4.138276 -29.633509 13.561633 -15.333740 13.577026 2.187362 12.484220 -1.707737 -8.639230 -3.342829 5.038662 12.665653 -0.674451 5.259446 3.288305 0.492880 0.106630 -0.012080 18.137760 -10.237793 2.800784 -14.065645 1.473008 -21.444880 6.430757 -3.272691 2.476497 0.197400 -3.899263 3.198387 0.428280 1.379610 0.896110 -3.020055 -2.584676 -6.283083 3.884301 -2.508794 -0.350506 1.578600 -3.573272 -0.159204 2.256183 1.667544 -3.137375 2.934088 2.777366 12.655479 -3.921540 1.560560 5.777000 -7.693398 13.942083 -0.245847 -23.076514 15.852641 -5.907366 38.427058 -66.340486 -22.223765 -4.367909 3.577318 -0.020260 1.158850 -0.516510 0.807240 4.665207 -16.446903 0.392921 27.471647 -25.529952 -13.198765 -24.815457 65.641916 -13.685703 1.403640 -2.917493 -0.388800 0.063320 -0.232750 0.232530 
0.230110 16.981320 -0.043660 -4.157580 -29.746728 13.845308 -15.331388 13.573331 2.200537 12.642407 -1.748809 -8.555223 -3.311365 4.977979 12.248862 -0.648273 5.238952 3.302670 0.462660 0.062150 -0.034630 18.138202 -10.226083 2.809920 -14.007292 1.486008 -21.599234 6.522399 -3.288750 2.457223 0.206082 -3.886204 3.213032 0.389850 1.382620 0.899770 -3.023812 -2.596626 -6.303115 4.224381 -2.703439 -0.318911 1.340905 -3.732972 -0.840033 2.302659 1.571599 -3.119190 2.802766 2.641468 12.565569 -3.901880 1.436320 6.265470 -7.398387 14.290253 -0.267052 -23.598000 15.756829 -6.070598 34.696349 -61.519538 -17.943335 -4.397974 3.645772 -0.017830 1.155440 -0.521290 0.804780 4.274591 -16.794975 0.478970 28.305549 -25.645509 -13.345056 -25.990082 60.557120 -12.414698 1.486281 -2.891261 -0.385190 0.046060 -0.222920 0.236400 
